<svg width="24" height="24" xmlns="http://www.w3.org/2000/svg" fill="none" stroke="red" stroke-width="2" stroke-linecap="round" stroke-linejoin="round" class="feather feather-heart">
 <g>
  <title>Layer 1</title>
  <path d="m20.84,4.61a5.5,5.5 0 0 0 -7.78,0l-1.06,1.06l-1.06,-1.06a5.5,5.5 0 0 0 -7.78,7.78l1.06,1.06l7.78,7.78l7.78,-7.78l1.06,-1.06a5.5,5.5 0 0 0 0,-7.78z" id="svg_1"/>
  <path d="m8.93756,10.93752c0.125,0 0.25,0 0.49999,0c0.49999,0 1.14276,-0.04512 1.87497,-0.25c0.64824,-0.18138 1.08092,-0.49655 1.62497,-0.62499c0.12165,-0.02872 -0.00708,-0.01031 -0.37499,0.25c-0.5102,0.36098 -0.83666,0.80733 -0.99998,0.87498c-0.11548,0.04783 -0.27585,0.22658 -0.49999,0.49999c-0.28573,0.34853 -0.49999,0.87498 -0.49999,1.12498c0,0.125 0.22796,0.18578 0.49999,0.25c0.36496,0.08616 0.76336,0.11487 1.24998,0c0.27203,-0.06422 0.60981,-0.18668 0.99998,-0.25c0.24677,-0.04004 0.49999,-0.125 0.62499,-0.125c0.125,0 -0.01867,0.06572 -0.125,0c-0.23776,-0.14694 -0.30734,-0.33667 -0.37499,-0.49999c-0.09567,-0.23097 -0.06219,-0.49072 -0.125,-1.12498c-0.04927,-0.49756 0,-0.87498 -0.125,-0.87498c-0.125,0 -0.18109,0.22803 -0.49999,1.12498c-0.30484,0.85742 -0.62499,1.74997 -0.87498,2.24996c-0.125,0.25 -0.16161,0.28661 -0.25,0.37499c-0.08839,0.08839 -0.16545,0.06502 -0.37499,0.25c-0.33787,0.29827 -0.5366,0.5366 -0.62499,0.62499c-0.08839,0.08839 -0.25,0 -0.49999,0c-0.125,0 -0.125,0.125 -0.125,0.25c0,0.49999 0.34441,1.14148 0.62499,1.62497c0.22621,0.3898 0.28661,0.5366 0.37499,0.62499c0.08839,0.08839 0.29718,0.14618 0.49999,0c0.32067,-0.23112 0.16161,-0.83837 0.25,-0.74998c0.08839,0.08839 0.0511,0.75364 0.125,1.49997c0.0628,0.63426 0,0.99998 0.125,0.99998c0.125,0 -0.26517,-0.6883 0.125,-0.62499c0.12338,0.02002 0,0.37499 0,0.74998c0,0.25 -0.05744,0.11831 0,-0.125c0.06422,-0.27203 0.28831,-0.43234 0.125,-0.49999c-0.11548,-0.04783 -0.25,0 -0.74999,-0.125c-0.49999,-0.125 -0.90365,-0.1665 -1.37498,-0.37499c-0.41216,-0.18233 -0.67698,-0.59512 -0.87498,-0.99998c-0.17367,-0.35509 -0.11139,-0.72509 0.25,-0.62499c0.70241,0.19456 1.03876,0.71486 1.37498,1.12498c0.28573,0.34853 0.58838,0.7866 0.49999,0.87498c-0.08839,0.08839 -0.37499,-0.37499 -0.87498,-0.87498c-0.49999,-0.49999 -1.02013,-1.09951 -1.49997,-1.49997c-0.42918,-0.35818 -0.87498,-0.62499 -1.12498,-0.87498c-0.37499,-0.37499 -0.66826,-0.71317 -0.87498,-0.99998c-0.16343,-0.22674 -0.37499,-0.49999 -0.62499,-0.62499c-0.49999,-0.25 -0.8063,-0.6813 -1.12498,-0.99998c-0.31868,-0.31868 -0.51223,-0.47805 -0.74999,-0.62499c-0.10633,-0.06571 -0.03661,-0.16161 -0.125,-0.25c-0.08839,-0.08839 -0.125,-0.125 -0.125,-0.25c0,-0.125 0,-0.25 0,-0.49999c0,-0.25 -0.06756,-0.38168 -0.125,-0.62499c-0.06422,-0.27203 -0.125,-0.37499 -0.125,-0.49999c0,-0.125 0.09567,-0.26902 0,-0.49999c-0.06765,-0.16332 -0.18235,-0.21168 -0.25,-0.37499c-0.04783,-0.11548 0,-0.25 0,-0.37499c0,-0.125 0,-0.25 0,-0.37499c0,-0.37499 -0.02627,-0.50979 0.125,-0.87498c0.10696,-0.25823 0.33656,-0.64824 0.49999,-0.87498c0.20672,-0.28681 0.49999,-0.49999 0.74999,-0.74999c0.125,-0.125 0.25951,-0.20216 0.37499,-0.25c0.16332,-0.06765 0.35296,-0.31078 0.62499,-0.37499c0.12165,-0.02872 0.38451,-0.07716 0.49999,-0.125c0.16332,-0.06765 0.125,-0.25 0,-0.25c-0.125,0 -0.37047,0.01448 -0.74999,0.125c-0.49483,0.14409 -1.02644,0.21426 -1.37497,0.49999c-0.13671,0.11207 -0.26902,0.15433 -0.49999,0.25c-0.16332,0.06765 -0.20216,0.25951 -0.25,0.37499c-0.06765,0.16332 -0.18578,0.22796 -0.25,0.49999c-0.02872,0.12165 0,0.37499 0,0.62499c0,0.25 -0.07918,0.5028 -0.125,0.87498c-0.06297,0.51152 -0.125,0.99998 -0.125,1.37497c0,0.25 0.05735,0.46167 0.125,0.62499c0.04783,0.11548 0,0.37499 0,0.49999c0,0.125 0,0 0,-0.25c0,-0.37499 0.16718,-0.78874 0.37499,-1.12498c0.27881,-0.45112 0.62499,-0.74999 0.99998,-0.87498c0.37499,-0.125 0.87498,-0.125 1.37497,-0.125c0.25,0 0.40705,0.09962 0.49999,0.25c0.20781,0.33624 0.31202,0.87718 0.25,1.74997c-0.06266,0.88164 -0.18366,1.66303 -0.37499,2.12496c-0.06765,0.16332 -0.22636,-0.00226 -0.25,-0.125c-0.12729,-0.66099 -0.37499,-1.62497 -0.37499,-2.49995c0,-0.49999 0.25,-0.74999 0.49999,-0.74999c0.37499,0 0.66374,-0.08281 0.99998,0.125c0.15037,0.09294 0.34791,0.44892 0,1.12498c-0.24266,0.47154 -0.60296,0.68577 -0.87498,0.74999c-0.12165,0.02872 -0.45925,0.04411 -0.62499,-0.37499c-0.2796,-0.70705 -0.2795,-1.72046 0,-1.99996c0.2795,-0.2795 1.95617,0.38461 2.37496,1.37497c0.54429,1.28717 0.15146,2.87981 0.25,3.87493c0.0628,0.63426 0.25,0.87498 0.37499,0.87498c0.125,0 0.37499,-0.25 0.37499,-0.99998c0,-1.12498 0.07355,-2.17546 -0.37499,-2.74995c-0.21758,-0.27867 -0.57321,-0.55177 -0.74999,-0.37499c-0.08839,0.08839 -0.125,0.74999 -0.125,1.74997c0,0.99998 -0.15654,2.04216 0.49999,2.49995c0.32424,0.22609 0.77358,0.19809 0.87498,0.125c0.32067,-0.23112 0.26354,-1.0313 0,-1.87497c-0.25002,-0.80037 -0.78206,-1.42733 -1.37497,-1.62497c-0.11858,-0.03953 -0.37499,0 -0.62499,0.25c-0.37499,0.37499 -0.71658,0.79933 -0.49999,1.24998c0.34671,0.72138 1.62497,0.87498 2.49995,0.99998c0.87498,0.125 1.56792,0.07473 2.12496,-0.49999c0.43498,-0.44878 0.49999,-1.12498 0.49999,-1.62497c0,-0.25 -0.37424,0.35443 -0.49999,1.49997c-0.12275,1.11826 -0.15451,2.09545 0.125,2.37496c0.2795,0.2795 0.74999,0.125 1.12498,0.125c0.37499,0 0.93357,-0.31746 1.12498,-1.24998c0.1508,-0.73467 0.09567,-1.519 0,-1.74997c-0.06765,-0.16332 -0.26479,-0.18398 -0.37499,-0.125c-0.79472,0.42532 -1.02017,1.8711 -1.24998,3.12494c-0.13707,0.74787 0.125,1.12498 0.62499,1.12498c0.49999,0 0.95906,-0.21355 1.24998,-0.99998c0.35762,-0.96673 0.43728,-1.99221 0.49999,-2.74995c0.03093,-0.37372 -0.07044,-0.78717 -0.37499,-0.125c-0.49551,1.07734 -0.70507,2.38256 -0.87498,3.24994c-0.09907,0.50577 0.01003,0.66383 0.37499,0.74999c0.27203,0.06422 0.72642,0.23317 0.99998,-0.125c0.47986,-0.62826 0.56233,-1.74331 0.62499,-2.62495c0.03544,-0.49873 -0.09873,-0.36519 -0.25,0c-0.42785,1.03291 -1.34963,2.13676 -1.99996,3.49994c-0.36105,0.7568 -0.37499,0.87498 -0.25,0.87498c0.49999,0 0.92255,-0.47037 1.37498,-1.24998c0.56116,-0.96698 0.83062,-2.26387 1.12498,-3.12494c0.21774,-0.63694 0.28456,-0.99903 0.25,-0.37499c-0.06259,1.13017 -0.61812,2.16183 -0.87498,3.24994c-0.11487,0.48662 0,0.62499 0.125,0.62499c0.25,0 0.77282,-0.73889 1.24998,-1.74997c0.52541,-1.11333 1.12154,-1.8309 1.24998,-2.37496c0.02872,-0.12165 0.08009,0.00646 0,0.49999c-0.12663,0.78035 -0.73926,1.42753 -0.49999,1.49997c0.43135,0.1306 0.71664,-1.15407 1.37498,-1.87496c0.47682,-0.52213 0.91826,-0.96317 1.12498,-1.24998c0.16343,-0.22675 0.09542,-0.49296 -0.125,-0.37499c-0.39736,0.21266 -0.80234,0.65706 -0.99998,1.24998c-0.03953,0.11858 0.37499,-0.25 0.87498,-0.87498c0.49999,-0.62499 0.99998,-1.37498 1.24998,-1.87497c0.125,-0.25 -0.14663,-0.01841 -0.24999,0.125c-0.32686,0.45349 -0.72639,0.92689 -0.62499,0.99998c0.32067,0.23112 0.72423,-0.76092 0.99998,-1.37497c0.229,-0.50995 0.37499,-0.87498 0.37499,-1.12498c0,-0.125 0,-0.25 0,-0.37499c0,-0.125 0,-0.25 0,-0.37499c0,-0.125 0,-0.25 0,-0.49999c0,-0.125 0,-0.49999 0,-0.74999c0,-0.25 -0.06756,-0.50668 -0.125,-0.74999c-0.06422,-0.27203 -0.16161,-0.4116 -0.25,-0.49999c-0.08839,-0.08839 -0.03661,-0.16161 -0.125,-0.25c-0.17677,-0.17677 -0.16161,-0.28661 -0.24999,-0.37499c-0.08839,-0.08839 -0.07716,-0.13451 -0.125,-0.25c-0.06765,-0.16332 -0.25951,-0.07716 -0.37499,-0.125c-0.16332,-0.06765 -0.39402,-0.15433 -0.62499,-0.25c-0.32664,-0.1353 -0.50668,-0.31756 -0.74999,-0.37499c-0.27203,-0.06422 -0.37499,-0.25 -0.62499,-0.25c-0.125,0 -0.37499,-0.125 -0.49999,-0.125c-0.125,0 -0.25,0 -0.37499,0c-0.24999,0 -0.37499,0 -0.49999,0c-0.25,0 -0.38168,-0.05744 -0.62499,0c-0.27203,0.06422 -0.37499,0.125 -0.62499,0.25c-0.25,0.125 -0.60304,0.13723 -0.74999,0.37499c-0.06572,0.10633 -0.125,0.125 -0.25,0.125c-0.125,0 -0.21156,0.14825 -0.37499,0.37499c-0.10336,0.14341 -0.28661,0.16161 -0.37499,0.25c-0.17677,0.17677 -0.125,0.25 -0.25,0.37499c-0.125,0.125 -0.18235,0.21168 -0.25,0.37499c-0.04783,0.11548 -0.14825,0.08657 -0.37499,0.25c-0.14341,0.10336 -0.25,0.25 -0.37499,0.25c-0.125,0 -0.25,0 -0.37499,0c-0.125,0 -0.25,0 -0.37499,0c-0.125,0 -0.21168,-0.05735 -0.37499,-0.125c-0.11548,-0.04783 -0.08668,-0.18235 -0.25,-0.25c-0.11548,-0.04783 -0.25,-0.25 -0.37499,-0.37499c-0.125,-0.125 -0.21168,-0.30734 -0.37499,-0.37499c-0.11548,-0.04783 -0.13451,-0.07716 -0.25,-0.125c-0.16332,-0.06765 -0.21168,-0.18235 -0.37499,-0.25c-0.11548,-0.04783 -0.38451,-0.07716 -0.49999,-0.125c-0.16332,-0.06765 -0.22796,-0.18578 -0.49999,-0.25c-0.12165,-0.02872 -0.21168,-0.05735 -0.37499,-0.125c-0.11548,-0.04783 -0.25,0 -0.37499,0c-0.125,0 -0.25,-0.125 -0.37499,-0.125c-0.125,0 -0.25,0 -0.37499,0c-0.125,0 -0.22997,0.00161 -0.25,0.125c-0.06332,0.39017 -0.125,0.87498 -0.125,1.37498c0,0.49999 -0.04927,1.12741 0,1.62497c0.0628,0.63426 0.37499,1.12498 0.49999,1.49997c0.125,0.37499 0.30734,0.58667 0.37499,0.74999c0.04783,0.11548 0.13417,0.13354 0.25,0c0.40949,-0.47215 0.73522,-1.38407 1.12498,-1.99996c0.241,-0.38083 0.34566,-0.64402 0.25,-0.87498c-0.06765,-0.16332 -0.35296,-0.18578 -0.62499,-0.25c-0.24331,-0.05744 -0.62499,-0.125 -0.87498,-0.125c-0.25,0 -0.49999,0 -0.74999,0c-0.25,0 -0.37499,0 -0.49999,0c-0.125,0 -0.16122,-0.13036 -0.125,-0.25c0.1306,-0.43135 0.61676,-0.51803 0.87498,-0.62499c0.36519,-0.15127 0.62499,-0.125 0.74999,-0.125c0.25,0 0.37499,0.25 0.37499,0.62499c0,0.37499 -0.08009,1.00758 -0.25,1.87497c-0.09907,0.50577 -0.16332,0.68234 0,0.74999c0.11548,0.04783 0.10121,-0.11019 -0.125,-0.49999c-0.28058,-0.48349 -0.56202,-1.23845 -0.62499,-1.74997c-0.04582,-0.37218 -0.06572,-0.64366 0,-0.74999c0.14694,-0.23776 0.6522,-0.32519 1.37497,-0.125c0.70241,0.19456 1.44546,0.54596 1.87497,0.99998c0.30972,0.3274 0.49439,0.81863 0.62499,1.24998c0.10867,0.3589 0.08668,0.55734 0.25,0.62499c0.11548,0.04783 0,0 -0.125,0c-0.25,0 -0.52866,-0.0835 -0.99998,0.125c-0.41216,0.18233 -0.83666,0.69264 -0.99998,0.62499c-0.23097,-0.09567 0.08111,-0.52446 0.37499,-0.99998c0.32858,-0.53165 0.46167,-0.80734 0.62499,-0.87498c0.11548,-0.04783 0.27971,-0.00863 0.37499,0.37499c0.18328,0.73791 -0.00899,1.70135 0.25,1.99996c0.18313,0.21115 0.40354,0.2685 0.74999,0.125c0.32663,-0.1353 0.76797,-0.8633 1.24998,-1.62497c0.38976,-0.61589 0.44409,-0.98679 0.49999,-0.87498c0.2795,0.55901 -0.889,0.98977 -1.24998,1.49997c-0.2603,0.36791 -0.42283,0.49048 -0.37499,0.37499c0.06765,-0.16332 0.42009,-0.90187 0.74999,-1.74997c0.30398,-0.78147 0.62499,-1.12498 0.49999,-1.12498c-0.25,0 0.25,0.74999 0.37499,0.74999c0.125,0 0.52316,0.02214 0.99998,-0.49999c0.65833,-0.72089 1.12498,-1.37498 1.49997,-1.74997c0.25,-0.25 0.33667,-0.43234 0.49999,-0.49999c0.11548,-0.04783 0.08495,0.12823 0.125,0.37499c0.06332,0.39017 0.35296,0.43577 0.62499,0.49999c0.36496,0.08616 0.74999,0 1.12498,0c0.25,0 0.51866,-0.06571 0.62499,0c0.23776,0.14694 0.47786,0.45685 0.74999,1.24998c0.20685,0.60287 0.41788,1.35948 0.62499,1.99996c0.15857,0.49038 0.25,0.99998 0.25,1.37498c0,0.37499 0.04004,0.75321 0,0.99998c-0.06332,0.39017 -0.28877,0.58986 -0.62499,0.99998c-0.28573,0.34853 -0.72452,0.77014 -1.12498,1.24998c-0.17909,0.21459 -0.25,0.25 -0.37499,0.25c-0.24999,0 -0.61503,-0.021 -1.12498,-0.25c-0.61406,-0.27575 -1.12498,-0.49999 -1.37498,-0.74999c-0.25,-0.25 -0.31493,-0.62983 -0.37499,-0.99998c-0.06332,-0.39017 -0.39303,-0.61676 -0.49999,-0.87498c-0.15127,-0.36519 -0.26859,-0.8917 -0.125,-1.49997c0.19265,-0.81608 0.50255,-1.62178 1.12498,-2.12496c0.43472,-0.35143 0.87498,-0.49999 1.12498,-0.49999c0.49999,0 1.02782,0.0905 1.49997,0.49999c0.40063,0.34747 0.49999,0.74999 0.49999,0.99998c0,0.49999 -0.3412,1.27858 -0.87498,1.87497c-0.47158,0.52688 -0.69363,0.99438 -1.12498,1.12498c-0.23927,0.07244 -0.49999,0 -0.62499,0c-0.25,0 -0.65251,0.02564 -0.99998,-0.37499c-0.40949,-0.47215 -0.57091,-1.00675 -0.49999,-1.37498c0.12729,-0.66099 0.49999,-0.99998 0.87498,-1.37497c0.25,-0.25 0.49999,-0.37499 0.74999,-0.37499c0.37499,0 0.90144,0.08926 1.24998,0.37499c0.41012,0.33622 0.49999,0.62499 0.49999,0.99998c0,0.37499 -0.08926,0.65145 -0.37499,0.99998c-0.11207,0.13671 -0.25,0.125 -0.37499,0.125c-0.125,0 -0.40724,-0.48804 -0.62499,-1.12498c-0.29436,-0.86107 -0.34566,-1.26901 -0.24999,-1.49997c0.06765,-0.16332 0.24999,-0.125 0.62499,-0.125c0.49999,0 1.02801,0.36285 1.12498,0.62499c0.17881,0.48337 0.15054,1.13637 -0.25,1.99996c-0.2352,0.50712 -0.50951,0.92282 -0.62499,0.87498c-0.48995,-0.20294 -0.62499,-1.12498 -0.62499,-1.87497c0,-0.49999 0,-0.74999 0.125,-0.74999c0.49999,0 0.99998,0.125 1.37498,0.49999c0.37499,0.37499 0.62499,0.8596 0.62499,1.37498c0,0.51538 -0.47937,1.26414 -0.99998,1.99996c-0.36098,0.5102 -0.50334,0.65371 -0.62499,0.62499c-0.27203,-0.06422 -0.43737,-0.61915 -0.49999,-1.62497c-0.0699,-1.12281 -0.10484,-2.09949 0.37499,-2.49995c0.21459,-0.17909 0.63836,-0.23987 1.12498,-0.125c0.54405,0.12843 1.06232,0.99332 1.12498,1.87497c0.04431,0.62342 0.1545,1.22047 -0.125,1.49997c-0.2795,0.2795 -0.87498,0.25 -1.49997,0.25c-0.99998,0 -1.98603,-0.14926 -2.62495,-0.49999c-0.73504,-0.4035 -1.37154,-0.83092 -1.49997,-1.37498c-0.11487,-0.48662 -0.125,-0.74999 -0.125,-1.24998c0,-0.37499 0.08657,-0.52324 0.25,-0.74999c0.10336,-0.14341 0.16161,-0.16161 0.25,-0.25c0.08839,-0.08839 0.18702,0.11347 0.25,0.62499c0.07636,0.62031 -0.18404,1.30901 -0.74999,1.87497c-0.56595,0.56595 -0.7623,0.74938 -0.74999,0.62499c0.0628,-0.63426 0.58304,-1.74446 1.24998,-2.49995c0.41362,-0.46854 0.99998,-0.49999 1.24998,-0.49999c0.37499,0 0.92486,0.36226 1.12498,1.24998c0.16721,0.74172 0.17881,1.2666 0,1.74997c-0.09697,0.26214 -0.27802,0.26214 -0.37499,0c-0.35762,-0.96673 -0.56233,-2.3683 -0.62499,-3.24994c-0.03544,-0.49873 0.27359,-0.57308 0.37499,-0.49999c0.32067,0.23112 0.57605,1.1454 0.37499,2.12496c-0.19141,0.93251 -0.97036,1.79753 -1.74997,2.24996c-0.24174,0.14029 -0.52358,0.19808 -0.62499,0.125c-0.32067,-0.23112 -0.60354,-1.39642 -0.25,-1.74997c0.08839,-0.08839 0.26193,0.24716 0.37499,0.74999c0.13983,0.62184 0,1.37498 -0.37499,1.87497l-0.25,0.25l-0.125,0" id="svg_2" fill="none"/>
 </g>

</svg>